<svg width="26" height="27" xmlns="http://www.w3.org/2000/svg">
    <g fill="none" fill-rule="evenodd">
        <path d="M0 .5h26v26H0z"/>
        <g fill="#FFF" fill-rule="nonzero">
            <path d="m14.247 6.207 2.635 2.748v6.06h-1v-5.66L13.82 7.208H6.526v11.82h6.538v1l-7.538.002V6.207h8.721z"/>
            <path d="m13.534 6.694-.06 2.446a.5.5 0 0 0 .499.512l2.408.004a.5.5 0 0 0 .362-.846l-2.348-2.45a.5.5 0 0 0-.86.334zm.97 1.226.704.734-.722-.001.018-.733zM14.282 11.038v1H8.217v-1zM14.282 13.452v1H8.217v-1zM11.99 15.834v1H8.217v-1zM16.479 16.334l2.197 2.197-.707.707-1.49-1.49-1.49 1.49-.707-.707z"/>
            <path d="M16.979 17.286v4.286h-1v-4.286z"/>
        </g>
    </g>
</svg>
