<svg width="216" height="30" xmlns="http://www.w3.org/2000/svg">
    <g fill="none" fill-rule="evenodd">
        <path d="M0 0h216v30H0z"/>
        <path d="M48.292 21.084c2.092 0 3.567-.924 4.424-2.772.487-1.046.73-2.216.73-3.511 0-1.677-.411-3.052-1.236-4.126-.924-1.19-2.225-1.784-3.901-1.784h-4.94v12.193h4.923zm-.315-1.41H45.03V10.31h2.93c1.334 0 2.3.418 2.901 1.253.6.836.9 2.01.9 3.52 0 .393-.04.819-.124 1.278-.144.77-.379 1.4-.705 1.893-.41.614-.936 1.03-1.578 1.245-.36.116-.819.174-1.377.174zm8.242 1.41 1.32-3.652h4.823l1.237 3.652h1.81L60.983 8.891h-1.868l-4.59 12.193h1.693zm5.612-4.997h-3.819L59.98 10.7l1.852 5.387zm9.844 4.997v-10.74h4.11V8.89H65.89v1.452h4.109v10.741h1.676zm6.267 0 1.32-3.652h4.823l1.237 3.652h1.81L82.706 8.891h-1.868l-4.59 12.193h1.693zm5.612-4.997h-3.819l1.968-5.387 1.85 5.387zM98.279 21.4c1.644 0 2.95-.523 3.918-1.569.808-.869 1.284-1.945 1.428-3.229h-1.61c-.166.802-.418 1.45-.756 1.942-.636.936-1.563 1.403-2.78 1.403-1.323 0-2.318-.444-2.985-1.332-.666-.888-1-2.046-1-3.474 0-1.743.37-3.037 1.108-3.88.74-.844 1.709-1.266 2.91-1.266.985 0 1.75.23 2.295.689.545.459.909 1.081 1.091 1.867h1.61c-.093-1.035-.566-1.959-1.419-2.772-.852-.814-2.05-1.22-3.594-1.22-1.81 0-3.229.625-4.258 1.876-.952 1.15-1.428 2.625-1.428 4.424 0 2.368.634 4.12 1.901 5.254.963.858 2.153 1.287 3.57 1.287zm12.584.041c2.01 0 3.556-.708 4.64-2.125.925-1.206 1.387-2.72 1.387-4.54 0-1.682-.404-3.063-1.212-4.142-1.035-1.384-2.629-2.075-4.782-2.075-2.058 0-3.613.752-4.665 2.257-.819 1.174-1.228 2.585-1.228 4.234 0 1.826.479 3.337 1.436 4.532 1.074 1.24 2.548 1.86 4.424 1.86zm.2-1.477c-1.533 0-2.642-.464-3.325-1.39-.683-.927-1.025-2.066-1.025-3.416 0-1.688.398-2.965 1.195-3.831.797-.866 1.826-1.3 3.088-1.3 1.3 0 2.326.438 3.076 1.312.75.875 1.124 2.029 1.124 3.462 0 1.356-.325 2.555-.975 3.598-.65 1.043-1.703 1.565-3.159 1.565zm9.33 1.12v-7.312a76.425 76.425 0 0 0-.021-1.233l-.005-.222c-.01-.501-.016-.882-.016-1.144V10.8l3.503 10.284h1.635l3.478-10.284c0 .658-.005 1.275-.016 1.85-.011.576-.017.989-.017 1.238v7.196h1.569V8.891h-2.34l-3.479 10.31-3.503-10.31h-2.366v12.193h1.578zm14.435 0V15.93h3.835c1.228 0 2.138-.353 2.73-1.059.593-.705.889-1.534.889-2.486 0-1.107-.332-1.966-.996-2.577-.664-.612-1.539-.917-2.623-.917h-5.487v12.193h1.652zm3.287-6.549h-3.287V10.31h3.287c.636 0 1.137.086 1.502.257.664.321.996.93.996 1.827 0 .796-.23 1.353-.693 1.668-.462.315-1.064.473-1.805.473zm6.89 6.55 1.32-3.653h4.822l1.237 3.652h1.81l-4.425-12.193h-1.868l-4.59 12.193h1.693zm5.61-4.998h-3.818l1.968-5.387 1.85 5.387zm6.932 4.997v-5.229h3.76c.675 0 1.17.075 1.486.224.553.271.85.805.888 1.602l.1 2.034c.022.476.05.797.083.963.033.166.077.301.133.406h2.025v-.273c-.255-.111-.432-.36-.531-.748-.061-.226-.1-.572-.116-1.037l-.059-1.635c-.027-.709-.161-1.22-.402-1.536-.24-.315-.6-.57-1.075-.764.542-.282.964-.655 1.266-1.12.301-.465.452-1.063.452-1.793 0-1.4-.573-2.36-1.718-2.88-.603-.272-1.37-.407-2.3-.407h-5.644v12.193h1.652zm3.818-6.607h-3.818V10.31h4.034c.565 0 1.016.083 1.353.25.63.315.946.907.946 1.775 0 .808-.225 1.367-.676 1.677-.451.31-1.064.465-1.839.465zm8.65 6.607V8.891h-1.669v12.193h1.669zm7.03.357c1.3 0 2.442-.29 3.424-.871.983-.581 1.474-1.547 1.474-2.897 0-1.085-.387-1.912-1.162-2.482-.448-.327-1.085-.584-1.91-.772l-1.71-.39c-1.15-.266-1.89-.487-2.216-.664-.498-.277-.747-.714-.747-1.312 0-.542.213-1.018.64-1.428.426-.409 1.126-.614 2.1-.614 1.206 0 2.06.318 2.564.955.272.348.449.85.532 1.502h1.552c0-1.356-.447-2.342-1.34-2.959-.894-.617-1.98-.926-3.259-.926-1.389 0-2.462.352-3.22 1.055-.759.702-1.138 1.602-1.138 2.697 0 1.013.388 1.774 1.163 2.283.448.293 1.211.562 2.29.805l1.652.374c.897.205 1.555.445 1.976.722.415.282.623.755.623 1.42 0 .885-.493 1.5-1.478 1.842a5.128 5.128 0 0 1-1.693.266c-1.384 0-2.35-.404-2.897-1.212-.288-.432-.451-.993-.49-1.685h-1.552c-.017 1.317.404 2.36 1.261 3.13.858.774 2.045 1.161 3.561 1.161zm12.22 0c2.008 0 3.555-.708 4.64-2.125.923-1.206 1.386-2.72 1.386-4.54 0-1.682-.404-3.063-1.212-4.142-1.035-1.384-2.629-2.075-4.782-2.075-2.058 0-3.613.752-4.665 2.257-.819 1.174-1.228 2.585-1.228 4.234 0 1.826.478 3.337 1.436 4.532 1.073 1.24 2.548 1.86 4.424 1.86zm.198-1.477c-1.532 0-2.64-.464-3.324-1.39-.684-.927-1.025-2.066-1.025-3.416 0-1.688.398-2.965 1.195-3.831.797-.866 1.826-1.3 3.088-1.3 1.3 0 2.326.438 3.075 1.312.75.875 1.125 2.029 1.125 3.462 0 1.356-.325 2.555-.975 3.598-.65 1.043-1.703 1.565-3.159 1.565zm9.372 1.12v-9.87l6.25 9.87h1.852V8.891h-1.57v9.878l-6.159-9.878h-1.95v12.193h1.577z" fill="#FFF" fill-rule="nonzero"/>
        <g transform="translate(8 6)">
            <circle fill="#FFF" cx="9" cy="9" r="9"/>
            <circle fill="#68B3C8" cx="19" cy="9" r="9"/>
        </g>
    </g>
</svg>
